<svg xmlns="http://www.w3.org/2000/svg" xmlns:xlink="http://www.w3.org/1999/xlink" width="1080" zoomAndPan="magnify" viewBox="0 0 810 809.999993" height="1080" preserveAspectRatio="xMidYMid meet" version="1.0"><defs><clipPath id="429777cbd2"><path d="M 0 200.988281 L 810 200.988281 L 810 729 L 0 729 Z M 0 200.988281 " clip-rule="nonzero"/></clipPath></defs><g clip-path="url(#429777cbd2)"><path fill="#ffffff" d="M 811.007812 728.789062 C 540.363281 728.789062 269.636719 728.789062 -1.007812 728.789062 C -1.007812 715.59375 -1.007812 219.96875 -1.007812 206.773438 C 1 207.03125 2.230469 208.308594 4.574219 207.789062 C 6.679688 207.324219 9.039062 204.402344 12.695312 205.761719 C 14.078125 206.273438 13.652344 207.324219 15.738281 207.789062 C 20.703125 201.273438 33.792969 202.265625 42.636719 204.238281 C 48.039062 205.441406 50.550781 201.5 54.816406 202.714844 C 56.996094 203.332031 57.628906 206.097656 59.894531 205.253906 C 62.785156 204.503906 62.890625 202.863281 67 202.714844 C 67.382812 203.191406 71.203125 206.640625 71.566406 206.773438 C 74.1875 207.738281 78.226562 205.773438 80.195312 207.28125 C 80.96875 207.878906 82.207031 210.507812 82.730469 211.34375 C 86.121094 209.316406 95.789062 206.5625 102.015625 208.296875 C 104.328125 208.941406 105.597656 212.375 109.121094 211.34375 C 109.628906 210.835938 110.136719 210.328125 110.644531 209.820312 C 114.367188 209.820312 118.089844 209.820312 121.808594 209.820312 C 124.199219 209.121094 128.804688 207.371094 130.945312 206.773438 C 133.480469 207.113281 136.019531 207.453125 138.558594 207.789062 C 142.65625 206.429688 142.398438 202.835938 149.722656 202.714844 C 151.953125 205.769531 153.855469 204.164062 158.351562 205.253906 C 158.59375 205.3125 159.347656 206.351562 159.871094 206.265625 C 161.160156 206.058594 161.9375 204.132812 164.441406 204.746094 C 166.933594 205.355469 168.523438 208.230469 170.53125 208.804688 C 173.027344 209.519531 176.574219 207.617188 179.15625 209.3125 C 180.460938 210.167969 181.746094 212.710938 183.21875 213.371094 C 184.910156 213.542969 186.601562 213.710938 188.292969 213.878906 C 188.96875 214.558594 189.648438 215.234375 190.324219 215.910156 C 192.464844 216.492188 192.785156 214.746094 193.875 214.386719 C 196.414062 214.386719 198.949219 214.386719 201.488281 214.386719 C 202.71875 214.007812 203.847656 212.421875 206.054688 212.863281 C 208.570312 213.371094 209.457031 215.71875 211.132812 216.417969 C 213.667969 216.246094 216.207031 216.078125 218.742188 215.910156 C 219.40625 216.074219 221.328125 217.328125 221.789062 217.433594 C 224.324219 218.011719 228.355469 215.957031 229.910156 215.402344 C 232.277344 215.402344 234.644531 215.402344 237.015625 215.402344 C 240.449219 214.386719 245.214844 214.300781 248.6875 213.371094 C 251.730469 213.203125 254.777344 213.035156 257.820312 212.863281 C 259.929688 212.042969 263.234375 209.894531 265.433594 209.3125 C 270.089844 208.082031 279.703125 213.902344 283.199219 213.371094 C 291.878906 212.054688 298.621094 207.59375 306.542969 206.265625 C 311.183594 205.488281 315.378906 209.015625 320.753906 207.28125 C 323.589844 206.367188 324.496094 204.828125 328.875 204.746094 C 328.957031 204.855469 343.417969 213.828125 343.589844 213.878906 C 346.207031 214.660156 353.386719 212.730469 357.292969 213.371094 C 359.0625 213.664062 358.476562 215.433594 360.847656 214.894531 C 361.355469 214.386719 361.863281 213.878906 362.371094 213.371094 C 366.429688 213.371094 370.488281 213.371094 374.550781 213.371094 C 375.058594 212.695312 375.5625 212.019531 376.070312 211.34375 C 378.753906 209.695312 383.046875 210.578125 385.714844 211.34375 C 388.421875 211.34375 391.128906 211.34375 393.835938 211.34375 C 396.726562 212.257812 407.710938 216.125 410.074219 212.355469 C 411.269531 210.808594 411.007812 208.886719 411.597656 207.789062 C 412.195312 207.382812 412.453125 207.398438 413.628906 207.28125 C 415.859375 209.4375 421.644531 205.46875 423.777344 206.265625 C 425.269531 206.828125 425.347656 208.1875 428.34375 208.296875 C 428.34375 207.960938 428.34375 207.621094 428.34375 207.28125 C 427.964844 206.738281 428.039062 206.800781 427.839844 205.761719 C 428.878906 205.398438 430.210938 205.253906 431.898438 205.253906 C 432.480469 205.992188 432.914062 206.367188 433.421875 207.28125 C 437.136719 204.347656 450.066406 199.792969 457.78125 202.207031 C 459.425781 202.722656 459.492188 204.902344 462.347656 204.238281 C 462.6875 203.898438 463.027344 203.558594 463.363281 203.222656 C 467.59375 203.390625 471.824219 203.558594 476.050781 203.730469 C 477.578125 203.113281 481.703125 200.203125 485.1875 201.191406 C 485.695312 201.699219 486.203125 202.207031 486.710938 202.714844 C 489.246094 202.882812 491.785156 203.054688 494.320312 203.222656 C 494.828125 203.730469 495.335938 204.238281 495.84375 204.746094 C 498.570312 205.804688 501.105469 204.761719 503.457031 205.761719 C 505.125 206.46875 506.117188 208.277344 508.023438 208.804688 C 512.253906 208.972656 516.484375 209.144531 520.710938 209.3125 C 521.675781 209.597656 522.601562 211.074219 523.25 211.34375 C 526.125 211.34375 529 211.34375 531.878906 211.34375 C 533.445312 209.351562 538.550781 206.035156 541.011719 205.253906 C 546.085938 205.421875 551.164062 205.589844 556.238281 205.761719 C 556.574219 205.253906 556.914062 204.746094 557.253906 204.238281 C 563.195312 201.546875 571.929688 207.582031 575.523438 209.3125 C 578.101562 210.554688 579.238281 207.742188 581.613281 208.296875 C 585.003906 209.085938 589.132812 212.019531 593.285156 212.355469 C 596.980469 207.203125 601.980469 212.105469 606.988281 212.863281 C 611.960938 213.617188 615.410156 208.023438 621.199219 210.328125 C 623.871094 211.390625 627.699219 214.804688 632.871094 213.371094 C 636.074219 212.484375 639.238281 209.195312 642.515625 208.296875 C 645.472656 207.488281 648.480469 209.328125 650.632812 209.820312 C 656.367188 211.132812 659.195312 207.132812 663.828125 208.296875 C 665.902344 208.816406 667.160156 210.648438 668.90625 211.34375 C 671.53125 212.382812 673.582031 212.074219 676.011719 213.371094 C 676.6875 214.050781 677.363281 214.726562 678.039062 215.402344 C 682.101562 215.402344 686.160156 215.402344 690.21875 215.402344 C 691.019531 215.671875 691.957031 217.164062 692.757812 217.433594 C 695.082031 218.210938 708.789062 218.160156 710.519531 217.433594 C 711.824219 216.886719 714.296875 214.875 716.101562 214.386719 C 718.75 213.671875 719.667969 215.238281 722.195312 215.402344 C 723.195312 213.792969 724.503906 212.679688 725.746094 211.34375 C 731.371094 211.289062 736.613281 211.96875 740.972656 212.355469 C 742.042969 210.613281 742.6875 209.914062 745.539062 209.820312 C 746.566406 210.894531 747.03125 211.164062 749.089844 211.34375 C 750.09375 209.898438 750.621094 209.8125 753.152344 209.820312 C 755.175781 211.816406 756.847656 210.335938 760.257812 211.34375 C 762.136719 211.894531 767.578125 216.414062 770.40625 215.402344 C 771.070312 215.164062 772.457031 213.511719 773.453125 213.371094 C 776.019531 213.007812 777.332031 216.992188 780.558594 215.402344 C 784.503906 213.457031 787.371094 209.664062 792.738281 209.3125 C 799.558594 215.382812 805.714844 208.253906 811.007812 207.28125 C 811.007812 220.308594 811.007812 715.765625 811.007812 728.789062 Z M 811.007812 728.789062 " fill-opacity="1" fill-rule="evenodd"/></g></svg>